<svg xmlns="http://www.w3.org/2000/svg" viewBox="0 0 500 500"><g id="freepik--house-3--inject-40"><g id="freepik--yard--inject-40"><polygon points="26.21 376.74 26.21 372.05 184.63 280.55 274 332.18 274 336.87 115.57 428.39 26.21 376.74" style="fill:#445B83"></polygon><polygon points="26.21 372.05 115.57 423.69 274 332.18 184.63 280.55 26.21 372.05" style="fill:#445B83"></polygon><polygon points="217.12 322.8 180.56 343.91 217.16 365.02 253.68 343.77 217.12 322.8" style="fill:#f0f0f0"></polygon><polygon points="26.21 372.05 115.57 423.69 115.57 428.39 26.21 376.74 26.21 372.05" style="opacity:0.15"></polygon><polygon points="115.57 423.69 274 332.18 274 336.87 115.57 428.39 115.57 423.69" style="opacity:0.1"></polygon></g><g id="freepik--house--inject-40"><polygon points="150.26 260.56 207.13 227.73 233.37 278.24 176.5 311.08 150.26 260.56" style="fill:#455a64"></polygon><polygon points="150.26 260.56 207.13 227.73 233.37 278.24 176.5 311.08 150.26 260.56" style="fill:#37474f;opacity:0.5"></polygon><polygon points="176.5 346.25 225.25 318.11 225.25 285.28 176.5 313.42 176.5 346.25" style="fill:#f0f0f0"></polygon><polygon points="180.56 343.91 180.56 315.77 217.12 294.66 217.12 322.8 180.56 343.91" style="fill:#455a64"></polygon><polygon points="180.56 343.91 180.56 315.77 217.12 294.66 217.12 322.8 180.56 343.91" style="fill:#37474f;opacity:0.5"></polygon><polygon points="217.12 294.66 216.74 294.88 216.74 322.58 217.12 322.79 217.12 294.66" style="fill:#263238"></polygon><polygon points="216.73 322.58 180.56 343.48 180.56 343.91 217.12 322.8 216.73 322.58" style="fill:#37474f"></polygon><polygon points="211.21 276.87 211.21 261.67 202.46 256.62 193.74 271.72 193.74 286.97 211.21 276.87" style="fill:#f0f0f0"></polygon><polygon points="202.46 256.62 213.26 262.85 214.64 262.06 202.46 255.02 202.46 256.62" style="fill:#263238"></polygon><polygon points="193.74 286.97 185.01 271.83 180.56 264.09 193.74 271.72 193.74 286.97" style="fill:#e0e0e0"></polygon><polygon points="213.26 262.85 211.21 262.85 211.21 261.67 213.26 262.85" style="opacity:0.4"></polygon><polygon points="191.66 275.32 202.46 256.62 202.46 255.02 190.31 276.1 191.66 275.32" style="fill:#445B83"></polygon><polygon points="191.66 275.32 202.46 256.62 202.46 255.02 190.31 276.1 191.66 275.32" style="fill:#37474f"></polygon><polygon points="190.31 276.1 202.46 255.02 189.9 247.76 177.75 268.84 190.31 276.1" style="fill:#445B83"></polygon><polygon points="190.31 276.1 202.46 255.02 189.9 247.76 177.75 268.84 190.31 276.1" style="fill:#263238"></polygon><polygon points="198.11 269.28 206.84 264.23 206.84 274.31 198.11 279.36 198.11 269.28" style="fill:#455a64"></polygon><polygon points="205.95 273.79 205.95 264.75 198.11 269.28 198.11 278.32 205.95 273.79" style="fill:#e0e0e0"></polygon><polygon points="206.84 274.31 205.95 273.79 198.11 278.32 198.11 279.36 206.84 274.31" style="fill:#37474f"></polygon><polygon points="233.37 278.24 176.5 311.08 176.5 313.42 233.37 280.59 233.37 278.24" style="fill:#37474f"></polygon><polygon points="99.32 334.53 74.95 287.62 50.58 306.39 50.58 372.05 99.32 400.19 99.32 334.53" style="fill:#f0f0f0"></polygon><polygon points="66.83 325.15 58.7 320.46 58.7 334.52 66.83 339.22 66.83 325.15" style="fill:#455a64"></polygon><polygon points="59.35 334.15 59.35 320.83 66.83 325.15 66.83 338.47 59.35 334.15" style="fill:#fafafa"></polygon><polygon points="59.35 320.83 66.83 325.18 66.83 326.57 59.35 322.25 59.35 320.83" style="fill:#e0e0e0"></polygon><polygon points="58.7 334.52 59.35 334.15 66.83 338.47 66.83 339.22 58.7 334.52" style="fill:#37474f"></polygon><polygon points="66.83 332.56 58.7 327.87 58.7 327.11 66.83 331.81 66.83 332.56" style="fill:#455a64"></polygon><polygon points="91.2 339.22 83.07 334.53 83.07 348.6 91.2 353.29 91.2 339.22" style="fill:#455a64"></polygon><polygon points="83.72 348.22 83.72 334.9 91.2 339.22 91.2 352.54 83.72 348.22" style="fill:#fafafa"></polygon><polygon points="83.72 334.9 91.2 339.22 91.2 340.61 83.72 336.32 83.72 334.9" style="fill:#e0e0e0"></polygon><polygon points="83.07 348.6 83.72 348.22 91.2 352.54 91.2 353.29 83.07 348.6" style="fill:#37474f"></polygon><polygon points="91.2 346.43 83.07 341.77 83.07 341.01 91.2 345.67 91.2 346.43" style="fill:#455a64"></polygon><polygon points="66.83 353.29 58.7 348.6 58.7 362.67 66.83 367.36 66.83 353.29" style="fill:#455a64"></polygon><polygon points="59.35 362.29 59.35 348.98 66.83 353.29 66.83 366.61 59.35 362.29" style="fill:#fafafa"></polygon><polygon points="59.35 348.98 66.83 353.32 66.83 354.72 59.35 350.4 59.35 348.98" style="fill:#e0e0e0"></polygon><polygon points="58.7 362.67 59.35 362.29 66.83 366.61 66.83 367.36 58.7 362.67" style="fill:#37474f"></polygon><polygon points="66.83 360.71 58.7 356.01 58.7 355.26 66.83 359.95 66.83 360.71" style="fill:#455a64"></polygon><polygon points="91.2 367.36 83.07 362.67 83.07 376.74 91.2 381.43 91.2 367.36" style="fill:#455a64"></polygon><polygon points="83.72 376.37 83.72 363.05 91.2 367.36 91.2 380.68 83.72 376.37" style="fill:#fafafa"></polygon><polygon points="83.72 363.05 91.2 367.36 91.2 368.75 83.72 364.47 83.72 363.05" style="fill:#e0e0e0"></polygon><polygon points="83.07 376.74 83.72 376.37 91.2 380.68 91.2 381.43 83.07 376.74" style="fill:#37474f"></polygon><polygon points="91.2 374.57 83.07 369.91 83.07 369.16 91.2 373.81 91.2 374.57" style="fill:#455a64"></polygon><polygon points="176.5 355.64 99.32 400.19 99.32 334.53 176.5 289.97 176.5 355.64" style="fill:#fafafa"></polygon><polygon points="133.17 378.28 133.17 354.82 145.35 347.79 145.35 371.24 133.17 378.28" style="fill:#37474f"></polygon><polygon points="144.97 370.95 144.97 348.01 133.17 354.82 133.17 377.76 144.97 370.95" style="fill:#455a64"></polygon><polygon points="145.35 347.79 144.97 348.01 144.97 370.95 145.35 371.24 145.35 347.79" style="fill:#263238"></polygon><polygon points="150.1 342.08 168.38 331.53 168.38 350.94 150.1 361.5 150.1 342.08" style="fill:#263238"></polygon><polygon points="167.25 350.29 167.25 332.18 150.1 342.08 150.1 360.2 167.25 350.29" style="fill:#e6e6e6"></polygon><polygon points="167.25 332.18 167.25 336.4 150.1 346.31 150.1 342.08 167.25 332.18" style="fill:#e0e0e0"></polygon><polygon points="168.38 350.94 167.25 350.29 150.1 360.2 150.1 361.5 168.38 350.94" style="fill:#37474f"></polygon><polygon points="168.38 341.24 167.25 340.58 150.1 350.49 150.1 351.79 168.38 341.24" style="fill:#37474f"></polygon><polygon points="159.62 356 158.49 356.65 158.49 337.23 159.62 336.58 159.62 356" style="fill:#37474f"></polygon><polygon points="107.45 366.7 125.72 356.15 125.72 375.57 107.45 386.12 107.45 366.7" style="fill:#263238"></polygon><polygon points="124.6 374.92 124.6 356.8 107.45 366.7 107.45 384.82 124.6 374.92" style="fill:#e6e6e6"></polygon><polygon points="124.6 356.8 124.6 361.02 107.45 370.93 107.45 366.7 124.6 356.8" style="fill:#e0e0e0"></polygon><polygon points="125.72 375.57 124.6 374.92 107.45 384.82 107.45 386.12 125.72 375.57" style="fill:#37474f"></polygon><polygon points="125.72 365.86 124.6 365.21 107.45 375.12 107.45 376.41 125.72 365.86" style="fill:#37474f"></polygon><polygon points="116.96 380.63 115.84 381.28 115.84 361.86 116.96 361.21 116.96 380.63" style="fill:#37474f"></polygon><polygon points="129.74 321.02 148.02 310.47 148.02 329.89 129.74 340.44 129.74 321.02" style="fill:#263238"></polygon><polygon points="146.9 329.24 146.9 311.12 129.74 321.02 129.74 339.14 146.9 329.24" style="fill:#e6e6e6"></polygon><polygon points="146.9 311.12 146.9 312.98 129.74 322.88 129.74 321.02 146.9 311.12" style="fill:#e0e0e0"></polygon><polygon points="148.02 329.89 146.9 329.24 129.74 339.14 129.74 340.44 148.02 329.89" style="fill:#37474f"></polygon><polygon points="148.02 320.18 146.9 319.53 129.74 329.44 129.74 330.73 148.02 320.18" style="fill:#37474f"></polygon><polygon points="139.26 334.95 138.14 335.6 138.14 316.18 139.26 315.53 139.26 334.95" style="fill:#37474f"></polygon><polygon points="111.51 338.15 119.15 333.77 119.15 345.02 111.51 349.4 111.51 338.15" style="fill:#455a64"></polygon><polygon points="118.5 344.65 118.5 334.14 111.51 338.15 111.51 348.65 118.5 344.65" style="fill:#e0e0e0"></polygon><polygon points="119.15 345.02 118.5 344.65 111.51 348.65 111.51 349.4 119.15 345.02" style="fill:#37474f"></polygon><polygon points="111.51 343.77 119.15 339.39 119.15 338.64 111.51 343.02 111.51 343.77" style="fill:#455a64"></polygon><polygon points="156.68 312.04 164.31 307.66 164.31 318.92 156.68 323.3 156.68 312.04" style="fill:#455a64"></polygon><polygon points="163.66 318.54 163.66 308.04 156.68 312.04 156.68 322.54 163.66 318.54" style="fill:#e0e0e0"></polygon><polygon points="164.31 318.92 163.66 318.54 156.68 322.54 156.68 323.3 164.31 318.92" style="fill:#37474f"></polygon><polygon points="156.68 317.67 164.31 313.29 164.31 312.53 156.68 316.91 156.68 317.67" style="fill:#455a64"></polygon><polygon points="70.89 292.78 97.2 343.25 180.56 295.13 154.32 244.61 70.89 292.78" style="fill:#455a64"></polygon><polygon points="70.89 289.97 97.2 340.44 180.56 292.31 154.32 241.8 70.89 289.97" style="fill:#455a64"></polygon><polygon points="70.89 289.97 70.89 292.78 97.2 343.25 97.2 340.44 70.89 289.97" style="fill:#263238"></polygon><polygon points="97.2 340.44 180.56 292.31 180.56 295.13 97.2 343.25 97.2 340.44" style="fill:#37474f"></polygon><polygon points="46.52 311.55 70.89 292.78 70.89 289.97 46.52 308.73 46.52 311.55" style="fill:#263238"></polygon><polygon points="70.89 292.78 46.52 311.55 50.58 309.05 70.89 293.42 71.13 293.24 70.89 292.78"></polygon><polygon points="118 331.24 158.62 307.79 138.31 300.75 118 331.24" style="fill:#fafafa"></polygon><polygon points="118 328.42 105.82 279.17 138.31 297.94 118 328.42" style="fill:#263238"></polygon><polygon points="138.31 300.75 138.31 297.94 118 328.42 118 331.24 138.31 300.75" style="fill:#37474f"></polygon><polygon points="158.62 307.79 158.62 304.97 138.31 297.94 138.31 300.75 158.62 307.79" style="fill:#263238"></polygon><polygon points="158.62 304.97 105.82 279.17 138.31 297.94 158.62 304.97" style="fill:#37474f"></polygon><polygon points="99.32 397.85 115.57 407.23 192.75 362.67 176.5 353.29 99.32 397.85" style="fill:#e6e6e6"></polygon><polygon points="99.32 397.85 99.32 400.19 115.57 409.58 115.57 407.23 99.32 397.85" style="fill:#f0f0f0"></polygon><polygon points="192.75 362.67 192.75 365.02 115.57 409.58 115.57 407.23 192.75 362.67" style="fill:#fafafa"></polygon><path d="M116.69,368.86v35.08a.56.56,0,0,1-.33.46,1.76,1.76,0,0,1-1.58,0,.56.56,0,0,1-.33-.46V368.86Z" style="fill:#37474f"></path><path d="M188.69,327.31V362.4a.55.55,0,0,1-.33.45,1.76,1.76,0,0,1-1.58,0,.55.55,0,0,1-.33-.45V327.31Z" style="fill:#37474f"></path><polygon points="99.32 362.67 115.57 372.05 192.75 327.49 176.5 318.11 99.32 362.67" style="fill:#455a64"></polygon><polygon points="99.32 362.67 99.32 365.02 115.57 374.4 115.57 372.05 99.32 362.67" style="fill:#37474f"></polygon><polygon points="192.75 327.49 192.75 329.84 115.57 374.4 115.57 372.05 192.75 327.49" style="fill:#263238"></polygon></g><g id="freepik--plants--inject-40"><rect x="259.55" y="318.83" width="6.81" height="0.56" transform="translate(-140.62 409.13) rotate(-63.09)" style="fill:#455a64"></rect><rect x="259.52" y="315.18" width="0.56" height="5.71" transform="translate(-128.49 184.34) rotate(-31.76)" style="fill:#455a64"></rect><path d="M261.88,314.88v14.64a.23.23,0,0,1-.14.19.7.7,0,0,1-.66,0,.22.22,0,0,1-.13-.19V314.88Z" style="fill:#455a64"></path><path d="M273,310.33a6.8,6.8,0,1,1-6.8-6.8A6.8,6.8,0,0,1,273,310.33Z" style="fill:#445B83"></path><path d="M268.28,308.59c.88-2.76,1.81-3.84,1.22-4.18a6.8,6.8,0,1,0,1.89,10.24C269.38,315.24,267.14,312.17,268.28,308.59Z" style="opacity:0.2"></path><path d="M260.22,312.25a4.78,4.78,0,1,1-4.78-4.78A4.78,4.78,0,0,1,260.22,312.25Z" style="fill:#445B83"></path><path d="M255.44,307.47a4.79,4.79,0,0,0-2.79.9c-.13,2.92,2.35,5.77,1.65,6.73s-2.4.36-3-.45a4.78,4.78,0,1,0,4.13-7.18Z" style="opacity:0.2"></path><circle cx="261.41" cy="307.1" r="8.77" style="fill:#445B83"></circle><path d="M270,309.1a8.77,8.77,0,1,1-12.85-9.63,8.63,8.63,0,0,0-2.05,1.61,8.76,8.76,0,0,0,14.9,8Z" style="opacity:0.1"></path><rect x="39.36" y="358.06" width="6.81" height="0.56" transform="translate(-296.12 234.26) rotate(-63.09)" style="fill:#455a64"></rect><rect x="39.32" y="354.41" width="0.56" height="5.71" transform="matrix(0.85, -0.53, 0.53, 0.85, -182.1, 74.33)" style="fill:#455a64"></rect><path d="M41.69,354.11v14.64a.23.23,0,0,1-.14.19.7.7,0,0,1-.66,0,.23.23,0,0,1-.14-.19V354.11Z" style="fill:#455a64"></path><path d="M52.75,349.56a6.8,6.8,0,1,1-6.8-6.8A6.8,6.8,0,0,1,52.75,349.56Z" style="fill:#445B83"></path><path d="M48.09,347.82c.87-2.76,1.81-3.84,1.21-4.18A6.8,6.8,0,1,0,46,356.36a6.82,6.82,0,0,0,5.25-2.47C49.18,354.47,47,351.4,48.09,347.82Z" style="opacity:0.2"></path><path d="M40,351.48a4.78,4.78,0,1,1-4.78-4.78A4.78,4.78,0,0,1,40,351.48Z" style="fill:#445B83"></path><path d="M35.24,346.7a4.75,4.75,0,0,0-2.79.91c-.13,2.92,2.35,5.76,1.66,6.72s-2.4.37-3-.44a4.78,4.78,0,1,0,4.12-7.19Z" style="opacity:0.2"></path><circle cx="41.22" cy="346.33" r="8.77" style="fill:#445B83"></circle><path d="M49.75,348.33a8.77,8.77,0,1,1-12.84-9.63,8.94,8.94,0,0,0-2.06,1.61,8.76,8.76,0,0,0,14.9,8Z" style="opacity:0.1"></path><g id="freepik--plants--inject-40"><path d="M227.6,318.37l1.74-1a29.56,29.56,0,0,0,.2-8.5c-.87-5.53-4.63-7.44-6-6.89s-1.69,2.19.78,5.38A18.42,18.42,0,0,1,227.6,318.37Z" style="fill:#445B83"></path><g style="opacity:0.2"><path d="M227.6,318.37l1.74-1a29.56,29.56,0,0,0,.2-8.5c-.87-5.53-4.63-7.44-6-6.89s-1.69,2.19.78,5.38A18.42,18.42,0,0,1,227.6,318.37Z"></path></g><path d="M228.23,316.18h0a.12.12,0,0,1-.1-.14c.71-5.18-1.37-10.85-3.71-13.13a.15.15,0,0,1,0-.18.13.13,0,0,1,.18,0c2.38,2.33,4.5,8.09,3.77,13.34A.12.12,0,0,1,228.23,316.18Z" style="fill:#fff"></path><path d="M222.8,321.15c-.27.15-.83-.19-1.05-.33a2.63,2.63,0,0,1-.87-1,2.4,2.4,0,0,1-.21-1.47,5.49,5.49,0,0,1,.18-.78l.22-.76a2,2,0,0,0,.11-.76,2.05,2.05,0,0,0-.94-1.2,1.88,1.88,0,0,1-1-1.43,2.23,2.23,0,0,1,.55-1.3c.3-.38.66-.71.93-1.11a1.58,1.58,0,0,0,.31-1,1.64,1.64,0,0,0-.21-.61,8.93,8.93,0,0,1-.66-1.21,1.2,1.2,0,0,1,.21-1.3,1.42,1.42,0,0,1,1.07-.26,2.45,2.45,0,0,1,1,.35c1,.55,1.56,1.72,2.61,2.15a10.69,10.69,0,0,0,1.27.31,1.59,1.59,0,0,1,1,.72c.38.77-.33,1.72-.06,2.54s.94,1,1.34,1.65a1.57,1.57,0,0,1,.18.95,4.42,4.42,0,0,1-.4,1.6,10.7,10.7,0,0,1-.88,1.44S222.85,321.12,222.8,321.15Z" style="fill:#445B83"></path><g style="opacity:0.1"><path d="M222.8,321.15c-.27.15-.83-.19-1.05-.33a2.63,2.63,0,0,1-.87-1,2.4,2.4,0,0,1-.21-1.47,5.49,5.49,0,0,1,.18-.78l.22-.76a2,2,0,0,0,.11-.76,2.05,2.05,0,0,0-.94-1.2,1.88,1.88,0,0,1-1-1.43,2.23,2.23,0,0,1,.55-1.3c.3-.38.66-.71.93-1.11a1.58,1.58,0,0,0,.31-1,1.64,1.64,0,0,0-.21-.61,8.93,8.93,0,0,1-.66-1.21,1.2,1.2,0,0,1,.21-1.3,1.42,1.42,0,0,1,1.07-.26,2.45,2.45,0,0,1,1,.35c1,.55,1.56,1.72,2.61,2.15a10.69,10.69,0,0,0,1.27.31,1.59,1.59,0,0,1,1,.72c.38.77-.33,1.72-.06,2.54s.94,1,1.34,1.65a1.57,1.57,0,0,1,.18.95,4.42,4.42,0,0,1-.4,1.6,10.7,10.7,0,0,1-.88,1.44S222.85,321.12,222.8,321.15Z"></path></g><path d="M225.61,319.65h0a.12.12,0,0,1-.12-.13c.2-4.9-2.11-10.3-3.78-11.88a.12.12,0,0,1,0-.17.14.14,0,0,1,.18,0c1.71,1.61,4.06,7.1,3.86,12.07A.13.13,0,0,1,225.61,319.65Z" style="fill:#fff"></path><path d="M224.88,313.86h0a17.16,17.16,0,0,0-3.55-.58.12.12,0,0,1-.12-.12.11.11,0,0,1,.13-.12,17,17,0,0,1,3.61.58.13.13,0,0,1,.09.16A.13.13,0,0,1,224.88,313.86Z" style="fill:#fff"></path></g></g></g><g id="freepik--house-2--inject-40"><g id="freepik--yard--inject-40"><polygon points="262.13 212.07 262.13 207.38 367.73 146.41 453.05 195.66 453.05 200.35 347.43 261.32 262.13 212.07" style="fill:#445B83"></polygon><polygon points="262.13 207.38 347.43 256.63 453.05 195.66 367.73 146.41 262.13 207.38" style="fill:#445B83"></polygon><polygon points="262.13 207.38 347.43 256.63 347.43 261.32 262.13 212.07 262.13 207.38" style="opacity:0.15"></polygon><polygon points="347.43 256.63 453.05 195.66 453.05 200.35 347.43 261.32 347.43 256.63" style="opacity:0.1"></polygon></g><g id="freepik--house--inject-40"><polygon points="335.24 169.86 310.87 122.96 286.5 141.72 286.49 207.36 335.24 235.5 335.24 169.86" style="fill:#ebebeb"></polygon><polygon points="302.74 160.48 294.62 155.79 294.62 169.86 302.74 174.55 302.74 160.48" style="fill:#455a64"></polygon><polygon points="295.27 169.48 295.27 156.16 302.74 160.48 302.74 173.8 295.27 169.48" style="fill:#fafafa"></polygon><polygon points="295.27 156.16 302.74 160.51 302.74 161.91 295.27 157.59 295.27 156.16" style="fill:#e0e0e0"></polygon><polygon points="294.62 169.86 295.27 169.48 302.74 173.8 302.74 174.55 294.62 169.86" style="fill:#37474f"></polygon><polygon points="302.74 167.9 294.62 163.2 294.62 162.44 302.74 167.14 302.74 167.9" style="fill:#455a64"></polygon><polygon points="327.12 174.55 318.99 169.86 318.99 183.93 327.12 188.62 327.12 174.55" style="fill:#455a64"></polygon><polygon points="319.64 183.56 319.64 170.24 327.12 174.55 327.12 187.87 319.64 183.56" style="fill:#fafafa"></polygon><polygon points="319.64 170.24 327.12 174.55 327.12 175.94 319.64 171.66 319.64 170.24" style="fill:#e0e0e0"></polygon><polygon points="318.99 183.93 319.64 183.56 327.12 187.87 327.12 188.62 318.99 183.93" style="fill:#37474f"></polygon><polygon points="327.12 181.76 318.99 177.1 318.99 176.34 327.12 181 327.12 181.76" style="fill:#455a64"></polygon><polygon points="302.74 188.63 294.62 183.93 294.62 198 302.74 202.69 302.74 188.63" style="fill:#455a64"></polygon><polygon points="295.27 197.62 295.27 184.31 302.74 188.63 302.74 201.94 295.27 197.62" style="fill:#fafafa"></polygon><polygon points="295.27 184.31 302.74 188.66 302.74 190.05 295.27 185.73 295.27 184.31" style="fill:#e0e0e0"></polygon><polygon points="294.62 198 295.27 197.62 302.74 201.94 302.74 202.69 294.62 198" style="fill:#37474f"></polygon><polygon points="302.74 196.04 294.62 191.34 294.62 190.59 302.74 195.28 302.74 196.04" style="fill:#455a64"></polygon><polygon points="327.12 202.69 318.99 198 318.99 212.07 327.12 216.76 327.12 202.69" style="fill:#455a64"></polygon><polygon points="319.64 211.7 319.64 198.38 327.12 202.69 327.12 216.01 319.64 211.7" style="fill:#fafafa"></polygon><polygon points="319.64 198.38 327.12 202.69 327.12 204.09 319.64 199.8 319.64 198.38" style="fill:#e0e0e0"></polygon><polygon points="318.99 212.07 319.64 211.7 327.12 216.01 327.12 216.76 318.99 212.07" style="fill:#37474f"></polygon><polygon points="327.12 209.9 318.99 205.24 318.99 204.49 327.12 209.15 327.12 209.9" style="fill:#455a64"></polygon><polygon points="412.42 190.94 335.24 235.5 335.24 169.86 412.42 125.3 412.42 190.94" style="fill:#fafafa"></polygon><polygon points="335.24 181.76 412.42 137.03 412.42 125.3 335.24 169.86 335.24 181.76" style="fill:#f0f0f0"></polygon><polygon points="345.39 204.85 363.67 194.29 363.67 209.71 345.39 220.26 345.39 204.85" style="fill:#263238"></polygon><polygon points="362.55 209.06 362.55 194.94 345.39 204.85 345.39 218.96 362.55 209.06" style="fill:#e6e6e6"></polygon><polygon points="362.55 194.94 362.55 198.29 345.39 208.19 345.39 204.85 362.55 194.94" style="fill:#e0e0e0"></polygon><polygon points="363.67 209.71 362.55 209.06 345.39 218.96 345.39 220.26 363.67 209.71" style="fill:#37474f"></polygon><polygon points="363.67 202 362.55 201.35 345.39 211.26 345.39 212.56 363.67 202" style="fill:#37474f"></polygon><polygon points="354.91 214.77 353.79 215.42 353.79 200 354.91 199.35 354.91 214.77" style="fill:#37474f"></polygon><polygon points="345.39 181.35 363.67 170.8 363.67 186.21 345.39 196.77 345.39 181.35" style="fill:#263238"></polygon><polygon points="362.55 185.56 362.55 171.45 345.39 181.35 345.39 195.47 362.55 185.56" style="fill:#e6e6e6"></polygon><polygon points="362.55 171.45 362.55 174.79 345.39 184.7 345.39 181.35 362.55 171.45" style="fill:#e0e0e0"></polygon><polygon points="363.67 186.21 362.55 185.56 345.39 195.47 345.39 196.77 363.67 186.21" style="fill:#37474f"></polygon><polygon points="363.67 178.51 362.55 177.86 345.39 187.76 345.39 189.06 363.67 178.51" style="fill:#37474f"></polygon><polygon points="354.91 191.27 353.79 191.92 353.79 176.5 354.91 175.86 354.91 191.27" style="fill:#37474f"></polygon><polygon points="306.81 128.11 333.12 178.59 416.48 130.46 390.24 79.94 306.81 128.11" style="fill:#455a64"></polygon><polygon points="306.81 125.3 333.12 175.78 416.48 127.65 390.24 77.13 306.81 125.3" style="fill:#455a64"></polygon><polygon points="306.81 125.3 306.81 128.11 333.12 178.59 333.12 175.78 306.81 125.3" style="fill:#263238"></polygon><polygon points="333.12 175.78 416.48 127.65 416.48 130.46 333.12 178.59 333.12 175.78" style="fill:#37474f"></polygon><polygon points="282.43 146.88 306.81 128.11 306.81 125.3 282.43 144.06 282.43 146.88" style="fill:#263238"></polygon><polygon points="306.81 128.11 282.43 146.88 286.49 144.38 306.81 128.75 307.04 128.57 306.81 128.11"></polygon><polygon points="375.86 212.05 388.05 219.08 388.05 175.03 375.86 167.99 375.86 212.05" style="fill:#e0e0e0"></polygon><polygon points="388.05 219.08 428.67 195.63 428.67 150.18 388.05 173.63 388.05 219.08" style="fill:#fafafa"></polygon><polygon points="388.05 175.09 428.67 152.07 408.36 145.04 388.05 175.09" style="fill:#fafafa"></polygon><polygon points="408.36 145.04 408.36 142.22 386.47 174.62 386.47 177.42 408.36 145.04" style="fill:#263238"></polygon><polygon points="408.36 142.22 397.74 136.09 375.86 168.49 386.47 174.62 408.36 142.22" style="fill:#37474f"></polygon><polygon points="386.47 174.62 375.86 168.49 375.86 171.3 386.47 177.42 386.47 174.62" style="fill:#263238"></polygon><polygon points="432.73 153.48 432.73 150.66 408.36 142.22 408.36 145.04 432.73 153.48" style="fill:#37474f"></polygon><polygon points="432.73 150.66 415 142.18 397.74 136.09 408.36 142.22 432.73 150.66" style="fill:#37474f"></polygon><polygon points="432.73 150.66 415 142.18 397.74 136.09 408.36 142.22 432.73 150.66" style="fill:#263238"></polygon><polygon points="394.72 215.23 394.72 189.36 406.91 182.33 406.91 208.19 394.72 215.23" style="fill:#37474f"></polygon><polygon points="406.52 207.9 406.52 182.55 394.72 189.36 394.72 214.72 406.52 207.9" style="fill:#455a64"></polygon><polygon points="406.91 182.33 406.52 182.55 406.52 207.9 406.91 208.19 406.91 182.33" style="fill:#263238"></polygon><polygon points="415.52 179.78 423.15 175.4 423.15 186.66 415.52 191.04 415.52 179.78" style="fill:#455a64"></polygon><polygon points="422.5 186.28 422.5 175.78 415.52 179.78 415.52 190.29 422.5 186.28" style="fill:#e0e0e0"></polygon><polygon points="423.15 186.66 422.5 186.28 415.52 190.29 415.52 191.04 423.15 186.66" style="fill:#37474f"></polygon><polygon points="415.52 185.41 423.15 181.03 423.15 180.28 415.52 184.66 415.52 185.41" style="fill:#455a64"></polygon><polygon points="399.22 164.41 417.5 153.86 417.5 169.27 399.22 179.82 399.22 164.41" style="fill:#263238"></polygon><polygon points="416.37 168.62 416.37 154.5 399.22 164.41 399.22 178.53 416.37 168.62" style="fill:#e6e6e6"></polygon><polygon points="416.37 154.5 416.37 157.85 399.22 167.76 399.22 164.41 416.37 154.5" style="fill:#e0e0e0"></polygon><polygon points="417.5 169.27 416.37 168.62 399.22 178.53 399.22 179.82 417.5 169.27" style="fill:#37474f"></polygon><polygon points="417.5 161.56 416.37 160.91 399.22 170.82 399.22 172.12 417.5 161.56" style="fill:#37474f"></polygon><polygon points="408.74 174.33 407.61 174.98 407.61 159.56 408.74 158.91 408.74 174.33" style="fill:#37474f"></polygon><polygon points="394.69 215.21 406.88 208.18 419.12 215.21 406.88 222.28 394.69 215.21" style="fill:#f0f0f0"></polygon></g><g id="freepik--plants--inject-40"><g id="freepik--plants--inject-40"><path d="M329.29,234.52l-1.73-1a29.78,29.78,0,0,1-.21-8.5c.87-5.53,4.63-7.44,6-6.89s1.69,2.19-.78,5.38A18.42,18.42,0,0,0,329.29,234.52Z" style="fill:#445B83"></path><g style="opacity:0.2"><path d="M329.29,234.52l-1.73-1a29.78,29.78,0,0,1-.21-8.5c.87-5.53,4.63-7.44,6-6.89s1.69,2.19-.78,5.38A18.42,18.42,0,0,0,329.29,234.52Z"></path></g><path d="M328.66,232.33h0a.13.13,0,0,0,.1-.14c-.71-5.18,1.37-10.85,3.71-13.13a.15.15,0,0,0,0-.18.13.13,0,0,0-.18,0c-2.38,2.33-4.5,8.09-3.77,13.34A.13.13,0,0,0,328.66,232.33Z" style="fill:#fff"></path><path d="M334.09,237.3c.27.15.83-.19,1.05-.34a2.53,2.53,0,0,0,.87-1,2.48,2.48,0,0,0,.22-1.47,6.82,6.82,0,0,0-.19-.78l-.22-.76a1.47,1.47,0,0,1,.84-2,1.91,1.91,0,0,0,.94-1.43,2.2,2.2,0,0,0-.55-1.3c-.3-.38-.66-.72-.93-1.11a1.58,1.58,0,0,1-.31-1,1.64,1.64,0,0,1,.21-.61,8.47,8.47,0,0,0,.66-1.22,1.19,1.19,0,0,0-.21-1.29,1.42,1.42,0,0,0-1.07-.26,2.45,2.45,0,0,0-1,.35c-1,.55-1.55,1.72-2.61,2.15-.4.16-.85.19-1.27.31a1.55,1.55,0,0,0-1,.72c-.38.77.33,1.72.06,2.53s-.94,1-1.34,1.66a1.54,1.54,0,0,0-.18.95,4.42,4.42,0,0,0,.4,1.6,10.7,10.7,0,0,0,.88,1.44S334.05,237.27,334.09,237.3Z" style="fill:#445B83"></path><g style="opacity:0.1"><path d="M334.09,237.3c.27.15.83-.19,1.05-.34a2.53,2.53,0,0,0,.87-1,2.48,2.48,0,0,0,.22-1.47,6.82,6.82,0,0,0-.19-.78l-.22-.76a1.47,1.47,0,0,1,.84-2,1.91,1.91,0,0,0,.94-1.43,2.2,2.2,0,0,0-.55-1.3c-.3-.38-.66-.72-.93-1.11a1.58,1.58,0,0,1-.31-1,1.64,1.64,0,0,1,.21-.61,8.47,8.47,0,0,0,.66-1.22,1.19,1.19,0,0,0-.21-1.29,1.42,1.42,0,0,0-1.07-.26,2.45,2.45,0,0,0-1,.35c-1,.55-1.55,1.72-2.61,2.15-.4.16-.85.19-1.27.31a1.55,1.55,0,0,0-1,.72c-.38.77.33,1.72.06,2.53s-.94,1-1.34,1.66a1.54,1.54,0,0,0-.18.95,4.42,4.42,0,0,0,.4,1.6,10.7,10.7,0,0,0,.88,1.44S334.05,237.27,334.09,237.3Z"></path></g><path d="M331.28,235.8h0a.12.12,0,0,0,.12-.13c-.2-4.9,2.11-10.31,3.78-11.88a.12.12,0,0,0,0-.17.12.12,0,0,0-.17,0c-1.72,1.61-4.07,7.1-3.87,12.07A.13.13,0,0,0,331.28,235.8Z" style="fill:#fff"></path><path d="M332,230h0a16.44,16.44,0,0,1,3.55-.58.12.12,0,0,0,.12-.13.11.11,0,0,0-.13-.11,16.32,16.32,0,0,0-3.61.58.12.12,0,0,0-.09.15A.13.13,0,0,0,332,230Z" style="fill:#fff"></path></g><rect x="443.81" y="185.04" width="6.81" height="0.56" transform="translate(79.53 500.21) rotate(-63.09)" style="fill:#455a64"></rect><rect x="443.78" y="181.39" width="0.56" height="5.71" transform="matrix(0.85, -0.53, 0.53, 0.85, -30.49, 261.29)" style="fill:#455a64"></rect><path d="M446.14,181.1v14.64a.25.25,0,0,1-.13.19.76.76,0,0,1-.66,0,.26.26,0,0,1-.14-.19V181.1Z" style="fill:#455a64"></path><path d="M457.21,176.54a6.8,6.8,0,1,1-6.8-6.8A6.8,6.8,0,0,1,457.21,176.54Z" style="fill:#445B83"></path><path d="M452.54,174.8c.88-2.76,1.81-3.84,1.22-4.18a6.8,6.8,0,1,0,1.9,10.25C453.64,181.45,451.41,178.38,452.54,174.8Z" style="opacity:0.2"></path><path d="M444.48,178.46a4.78,4.78,0,1,1-4.78-4.77A4.78,4.78,0,0,1,444.48,178.46Z" style="fill:#445B83"></path><path d="M439.7,173.69a4.74,4.74,0,0,0-2.79.9c-.13,2.92,2.35,5.76,1.66,6.72s-2.4.37-3-.44a4.78,4.78,0,1,0,4.13-7.18Z" style="opacity:0.2"></path><circle cx="445.68" cy="173.31" r="8.77" style="fill:#445B83"></circle><path d="M454.21,175.32a8.77,8.77,0,1,1-12.85-9.64,8.89,8.89,0,0,0-2.05,1.61,8.77,8.77,0,0,0,14.9,8Z" style="opacity:0.1"></path><rect x="269.95" y="197.17" width="6.81" height="0.56" transform="translate(-26.45 351.81) rotate(-63.09)" style="fill:#455a64"></rect><rect x="269.91" y="193.52" width="0.56" height="5.71" transform="translate(-62.9 171.6) rotate(-31.76)" style="fill:#455a64"></rect><path d="M272.28,193.22v14.64a.23.23,0,0,1-.14.19.7.7,0,0,1-.66,0,.23.23,0,0,1-.14-.19V193.22Z" style="fill:#455a64"></path><path d="M283.34,188.67a6.8,6.8,0,1,1-6.8-6.8A6.79,6.79,0,0,1,283.34,188.67Z" style="fill:#445B83"></path><path d="M278.67,186.93c.88-2.76,1.82-3.84,1.22-4.18a6.79,6.79,0,1,0,1.9,10.24C279.77,193.58,277.54,190.51,278.67,186.93Z" style="opacity:0.2"></path><path d="M270.61,190.59a4.78,4.78,0,1,1-4.78-4.78A4.78,4.78,0,0,1,270.61,190.59Z" style="fill:#445B83"></path><path d="M265.83,185.81a4.81,4.81,0,0,0-2.79.9c-.13,2.92,2.35,5.77,1.66,6.72s-2.4.37-3-.44a4.78,4.78,0,1,0,4.13-7.18Z" style="opacity:0.2"></path><circle cx="271.81" cy="185.44" r="8.77" style="fill:#445B83"></circle><path d="M280.34,187.44a8.77,8.77,0,1,1-12.84-9.63,8.49,8.49,0,0,0-2.06,1.61,8.76,8.76,0,0,0,14.9,8Z" style="opacity:0.1"></path></g></g><g id="freepik--house-1--inject-40"><polygon points="53.3 175.73 53.3 171.04 158.9 110.07 244.22 159.31 244.22 164 138.6 224.98 53.3 175.73" style="fill:#445B83"></polygon><polygon points="53.3 171.04 138.6 220.29 244.22 159.31 158.9 110.07 53.3 171.04" style="fill:#445B83"></polygon><polygon points="53.3 171.04 138.6 220.29 138.6 224.98 53.3 175.73 53.3 171.04" style="opacity:0.15"></polygon><polygon points="138.6 220.29 244.22 159.31 244.22 164 138.6 224.98 138.6 220.29" style="opacity:0.1"></polygon><polygon points="140.63 174.55 154.85 182.76 154.85 107.72 106.11 79.57 106.11 154.62 140.63 174.55" style="fill:#ebebeb"></polygon><polygon points="154.85 114.75 106.11 86.61 106.11 79.57 154.85 107.72 154.85 114.75" style="fill:#e0e0e0"></polygon><polygon points="123.98 103.96 114.23 98.33 114.23 106.78 123.98 112.41 123.98 103.96" style="fill:#455a64"></polygon><polygon points="114.88 106.4 114.88 98.71 123.98 103.96 123.98 111.65 114.88 106.4" style="fill:#fafafa"></polygon><polygon points="114.23 106.78 114.88 106.4 123.98 111.65 123.98 112.41 114.23 106.78" style="fill:#37474f"></polygon><polygon points="142.66 114.75 132.92 109.12 132.92 117.56 142.66 123.19 142.66 114.75" style="fill:#455a64"></polygon><polygon points="133.57 117.18 133.57 109.49 142.66 114.75 142.66 122.44 133.57 117.18" style="fill:#fafafa"></polygon><polygon points="132.92 117.56 133.57 117.18 142.66 122.44 142.66 123.19 132.92 117.56" style="fill:#37474f"></polygon><polygon points="150.79 107.19 211.72 115.29 211.72 112.95 150.79 104.84 150.79 107.19" style="fill:#37474f"></polygon><polygon points="102.05 76.69 150.79 104.84 211.72 112.95 162.98 84.79 102.05 76.69" style="fill:#455a64"></polygon><polygon points="102.05 76.69 150.79 104.84 150.79 107.19 102.05 79.03 102.05 76.69" style="fill:#263238"></polygon><polygon points="154.85 182.76 207.66 152.28 207.66 114.75 154.85 107.72 154.85 182.76" style="fill:#fafafa"></polygon><polygon points="162.98 178.07 162.98 154.62 175.16 147.58 175.16 171.04 162.98 178.07" style="fill:#37474f"></polygon><polygon points="174.78 170.75 174.78 147.81 162.98 154.62 162.98 177.56 174.78 170.75" style="fill:#455a64"></polygon><polygon points="175.16 147.58 174.78 147.81 174.78 170.75 175.16 171.04 175.16 147.58" style="fill:#263238"></polygon><polygon points="187.35 140.55 199.53 133.51 199.53 147.58 187.35 154.62 187.35 140.55" style="fill:#455a64"></polygon><polygon points="198.88 147.21 198.88 133.89 187.35 140.55 187.35 153.87 198.88 147.21" style="fill:#e0e0e0"></polygon><polygon points="199.53 147.58 198.88 147.21 187.35 153.87 187.35 154.62 199.53 147.58" style="fill:#37474f"></polygon><polygon points="193.77 136.84 193.12 137.22 193.12 151.29 193.77 150.92 193.77 136.84" style="fill:#455a64"></polygon><polygon points="193.12 137.22 193.12 151.29 192.47 150.92 192.47 137.59 193.12 137.22" style="fill:#37474f"></polygon><polygon points="179.22 135.86 179.22 116.1 162.97 113.94 162.97 145.24 179.22 135.86" style="fill:#e0e0e0"></polygon><polygon points="179.22 135.86 179.22 116.1 162.97 113.94 162.97 145.24 179.22 135.86" style="fill:#37474f"></polygon><polygon points="178.48 116 162.97 113.94 162.97 144.38 178.48 135.42 178.48 116" style="fill:#e0e0e0"></polygon><polygon points="178.48 116 179.22 116.1 179.22 135.86 178.48 135.42 178.48 116" style="fill:#455a64"></polygon><polygon points="171.84 140.12 171.84 115.12 171.1 115.02 171.1 140.55 171.84 140.12" style="fill:#455a64"></polygon><polygon points="171.1 115.02 171.1 140.55 170.35 140.12 170.35 114.92 171.1 115.02" style="fill:#37474f"></polygon><polygon points="187.35 131.17 187.35 117.18 199.53 118.8 199.53 124.13 187.35 131.17" style="fill:#455a64"></polygon><polygon points="198.88 123.76 198.88 118.72 187.35 117.18 187.35 130.42 198.88 123.76" style="fill:#e0e0e0"></polygon><polygon points="193.77 127.46 193.12 127.09 193.12 117.95 193.77 118.03 193.77 127.46" style="fill:#37474f"></polygon><polygon points="193.77 118.03 193.77 127.46 194.36 127.09 194.36 118.12 193.77 118.03" style="fill:#455a64"></polygon><polygon points="199.53 124.13 198.88 123.76 187.35 130.42 187.35 131.17 199.53 124.13" style="fill:#37474f"></polygon><polygon points="112.2 190.97 77.67 171.04 77.67 142.89 112.2 162.83 112.2 190.97" style="fill:#f0f0f0"></polygon><polygon points="112.2 162.83 112.2 169.86 77.67 149.93 77.67 142.89 112.2 162.83" style="fill:#e0e0e0"></polygon><polygon points="91.48 161.19 81.73 155.56 81.73 164.01 91.48 169.63 91.48 161.19" style="fill:#455a64"></polygon><polygon points="82.39 163.63 82.39 155.94 91.48 161.19 91.48 168.88 82.39 163.63" style="fill:#fafafa"></polygon><polygon points="82.39 155.97 82.39 158.33 91.48 163.58 91.48 161.23 82.39 155.97" style="fill:#e0e0e0"></polygon><polygon points="81.73 164.01 82.39 163.63 91.48 168.88 91.48 169.63 81.73 164.01" style="fill:#37474f"></polygon><polygon points="108.75 171.16 99 165.53 99 173.97 108.75 179.6 108.75 171.16" style="fill:#455a64"></polygon><polygon points="99.65 173.59 99.65 165.91 108.75 171.16 108.75 178.85 99.65 173.59" style="fill:#fafafa"></polygon><polygon points="99.65 165.91 99.65 168.26 108.75 173.51 108.75 171.16 99.65 165.91" style="fill:#e0e0e0"></polygon><polygon points="99 173.97 99.65 173.59 108.75 178.85 108.75 179.6 99 173.97" style="fill:#37474f"></polygon><polygon points="112.2 190.97 140.63 174.55 140.63 132.34 112.2 162.83 112.2 190.97" style="fill:#fafafa"></polygon><polygon points="116.26 188.63 116.26 172.21 136.57 160.48 136.57 176.9 116.26 188.63" style="fill:#455a64"></polygon><polygon points="136.57 160.48 136.19 160.7 136.19 176.68 136.57 176.89 136.57 160.48" style="fill:#263238"></polygon><polygon points="136.18 176.68 116.26 188.19 116.26 188.63 136.57 176.9 136.18 176.68" style="fill:#37474f"></polygon><polygon points="111.39 167.05 142.66 133.51 142.66 131.17 111.39 164.7 111.39 167.05" style="fill:#37474f"></polygon><polygon points="111.39 167.05 74.83 145.94 74.83 143.6 111.39 164.7 111.39 167.05" style="fill:#263238"></polygon><polygon points="106.11 110.06 142.66 131.17 111.39 164.7 74.83 143.6 106.11 110.06" style="fill:#455a64"></polygon><polygon points="175.16 171.04 199.53 185.11 187.35 192.14 162.98 178.07 175.16 171.04" style="fill:#f0f0f0"></polygon><g id="freepik--plants--inject-40"><rect x="227.08" y="146.05" width="6.81" height="0.56" transform="translate(-4.32 285.61) rotate(-63.09)" style="fill:#455a64"></rect><rect x="227.04" y="142.39" width="0.56" height="5.71" transform="translate(-42.42 141.39) rotate(-31.76)" style="fill:#455a64"></rect><path d="M229.41,142.1v14.64c0,.07,0,.13-.14.19a.76.76,0,0,1-.66,0,.23.23,0,0,1-.13-.19V142.1Z" style="fill:#455a64"></path><path d="M240.47,137.54a6.8,6.8,0,1,1-6.79-6.8A6.79,6.79,0,0,1,240.47,137.54Z" style="fill:#445B83"></path><path d="M235.81,135.8c.87-2.76,1.81-3.84,1.21-4.17a6.64,6.64,0,0,0-3.34-.89,6.8,6.8,0,1,0,5.24,11.13C236.91,142.46,234.67,139.38,235.81,135.8Z" style="opacity:0.2"></path><path d="M227.74,139.47a4.78,4.78,0,1,1-4.77-4.78A4.78,4.78,0,0,1,227.74,139.47Z" style="fill:#445B83"></path><path d="M223,134.69a4.75,4.75,0,0,0-2.8.9c-.13,2.92,2.35,5.76,1.66,6.72s-2.4.37-3-.44a4.77,4.77,0,1,0,4.13-7.18Z" style="opacity:0.2"></path><circle cx="228.94" cy="134.31" r="8.77" style="fill:#445B83"></circle><path d="M237.47,136.32a8.76,8.76,0,1,1-12.84-9.64,9,9,0,0,0-2,1.61,8.76,8.76,0,0,0,14.89,8Z" style="opacity:0.1"></path><rect x="61.87" y="159.92" width="6.81" height="0.56" transform="translate(-107.12 145.89) rotate(-63.09)" style="fill:#455a64"></rect><rect x="61.83" y="156.27" width="0.56" height="5.71" transform="translate(-74.45 56.51) rotate(-31.76)" style="fill:#455a64"></rect><path d="M64.2,156v14.63a.23.23,0,0,1-.14.19.7.7,0,0,1-.66,0,.22.22,0,0,1-.13-.19V156Z" style="fill:#455a64"></path><path d="M75.26,151.42a6.8,6.8,0,1,1-6.79-6.8A6.8,6.8,0,0,1,75.26,151.42Z" style="fill:#445B83"></path><path d="M70.6,149.68c.87-2.76,1.81-3.84,1.21-4.18a6.8,6.8,0,1,0,1.9,10.25C71.7,156.33,69.46,153.26,70.6,149.68Z" style="opacity:0.2"></path><path d="M62.53,153.34a4.78,4.78,0,1,1-4.77-4.77A4.78,4.78,0,0,1,62.53,153.34Z" style="fill:#445B83"></path><path d="M57.76,148.57a4.75,4.75,0,0,0-2.8.9c-.13,2.92,2.35,5.76,1.66,6.72s-2.4.37-3-.44a4.77,4.77,0,1,0,4.13-7.18Z" style="opacity:0.2"></path><circle cx="63.73" cy="148.19" r="8.77" style="fill:#445B83"></circle><path d="M72.26,150.19a8.76,8.76,0,1,1-12.84-9.63,8.68,8.68,0,0,0-2.05,1.61,8.75,8.75,0,0,0,14.89,8Z" style="opacity:0.1"></path><g id="freepik--plants--inject-40"><path d="M161.11,180.88l1.24-.71a21.18,21.18,0,0,0,.15-6.1c-.62-4-3.32-5.33-4.3-4.93s-1.21,1.57.56,3.85A13.22,13.22,0,0,1,161.11,180.88Z" style="fill:#445B83"></path><g style="opacity:0.2"><path d="M161.11,180.88l1.24-.71a21.18,21.18,0,0,0,.15-6.1c-.62-4-3.32-5.33-4.3-4.93s-1.21,1.57.56,3.85A13.22,13.22,0,0,1,161.11,180.88Z"></path></g><path d="M161.56,179.3h0a.08.08,0,0,1-.07-.1c.51-3.71-1-7.77-2.66-9.41a.09.09,0,0,1,0-.12.07.07,0,0,1,.12,0c1.71,1.66,3.23,5.79,2.71,9.56A.09.09,0,0,1,161.56,179.3Z" style="fill:#fff"></path><path d="M157.67,182.86c-.19.12-.6-.13-.75-.23a1.8,1.8,0,0,1-.62-.72,1.72,1.72,0,0,1-.16-1,5.07,5.07,0,0,1,.13-.56c.06-.18.11-.36.16-.54a1.5,1.5,0,0,0,.08-.55,1.47,1.47,0,0,0-.68-.86,1.36,1.36,0,0,1-.67-1,1.58,1.58,0,0,1,.39-.94c.22-.27.47-.51.66-.79a1.13,1.13,0,0,0,.23-.7,1.3,1.3,0,0,0-.15-.43,6.17,6.17,0,0,1-.48-.87.89.89,0,0,1,.15-.93,1,1,0,0,1,.77-.19,1.88,1.88,0,0,1,.72.25c.71.4,1.11,1.24,1.87,1.54a7.09,7.09,0,0,0,.91.22,1.13,1.13,0,0,1,.75.52c.28.55-.24,1.23,0,1.82s.67.72,1,1.18a1.14,1.14,0,0,1,.13.68,3,3,0,0,1-.29,1.15,8.45,8.45,0,0,1-.63,1Z" style="fill:#445B83"></path><g style="opacity:0.1"><path d="M157.67,182.86c-.19.12-.6-.13-.75-.23a1.8,1.8,0,0,1-.62-.72,1.72,1.72,0,0,1-.16-1,5.07,5.07,0,0,1,.13-.56c.06-.18.11-.36.16-.54a1.5,1.5,0,0,0,.08-.55,1.47,1.47,0,0,0-.68-.86,1.36,1.36,0,0,1-.67-1,1.58,1.58,0,0,1,.39-.94c.22-.27.47-.51.66-.79a1.13,1.13,0,0,0,.23-.7,1.3,1.3,0,0,0-.15-.43,6.17,6.17,0,0,1-.48-.87.89.89,0,0,1,.15-.93,1,1,0,0,1,.77-.19,1.88,1.88,0,0,1,.72.25c.71.4,1.11,1.24,1.87,1.54a7.09,7.09,0,0,0,.91.22,1.13,1.13,0,0,1,.75.52c.28.55-.24,1.23,0,1.82s.67.72,1,1.18a1.14,1.14,0,0,1,.13.68,3,3,0,0,1-.29,1.15,8.45,8.45,0,0,1-.63,1Z"></path></g><path d="M159.69,181.79h0a.08.08,0,0,1-.08-.09c.14-3.51-1.51-7.39-2.71-8.51a.09.09,0,1,1,.12-.13c1.23,1.15,2.91,5.09,2.76,8.65A.09.09,0,0,1,159.69,181.79Z" style="fill:#fff"></path><path d="M159.16,177.64h0a11.65,11.65,0,0,0-2.54-.41.09.09,0,1,1,0-.18,11.77,11.77,0,0,1,2.6.42.08.08,0,0,1,.05.11A.08.08,0,0,1,159.16,177.64Z" style="fill:#fff"></path></g></g></g><g id="freepik--Clouds--inject-40"><path d="M279.24,53.83l-6.95,4a7.22,7.22,0,0,0,.06-.92v-2c0-3.58-2.52-5-5.62-3.24a11,11,0,0,0-3.35,3.22c-.51-4.51-4-6.18-8.34-3.71-4.64,2.69-8.41,9.21-8.41,14.57v3a7.85,7.85,0,0,0,.72,3.49l-5.78,3.33a6.92,6.92,0,0,0-3.12,5.4c0,2,1.4,2.8,3.12,1.8L279.24,61a6.89,6.89,0,0,0,3.12-5.4C282.36,53.65,281,52.84,279.24,53.83Z" style="fill:#ebebeb"></path><path d="M309,74.09l-5.24,3c0-.24,0-.47,0-.7V74.9c0-2.7-1.9-3.8-4.24-2.44A8.09,8.09,0,0,0,297,74.89c-.38-3.4-3-4.67-6.29-2.8a14,14,0,0,0-6.35,11v2.27a6.08,6.08,0,0,0,.54,2.64l-4.36,2.51a5.21,5.21,0,0,0-2.35,4.08c0,1.5,1.05,2.11,2.35,1.36L309,79.52a5.2,5.2,0,0,0,2.36-4.07C311.35,74,310.29,73.34,309,74.09Z" style="fill:#ebebeb"></path><path d="M441.57,260.5l-5.24,3c0-.23,0-.46,0-.69v-1.52c0-2.71-1.9-3.8-4.24-2.45a8.32,8.32,0,0,0-2.53,2.43c-.38-3.4-3.05-4.67-6.29-2.8a14,14,0,0,0-6.35,11v2.27a6,6,0,0,0,.54,2.63l-4.36,2.52a5.19,5.19,0,0,0-2.35,4.07c0,1.5,1,2.11,2.35,1.36l28.43-16.41a5.22,5.22,0,0,0,2.36-4.08C443.93,260.35,442.87,259.74,441.57,260.5Z" style="fill:#ebebeb"></path></g></svg>